<svg width="60" height="60" viewBox="0 0 60 60" fill="none" xmlns="http://www.w3.org/2000/svg">
<path fill-rule="evenodd" clip-rule="evenodd" d="M45.9587 30L45.9587 32.6761C47.1779 33.107 48.2928 33.7584 49.2557 34.5824L51.5756 33.243L55.0479 39.257L52.7294 40.5957C52.8435 41.2131 52.9031 41.8496 52.9031 42.5C52.9031 43.1504 52.8435 43.7869 52.7294 44.4043L55.0479 45.743L51.5756 51.757L49.2557 50.4176C48.2928 51.2416 47.1779 51.893 45.9587 52.3239L45.9587 55H39.0142L39.0141 52.3239C37.795 51.893 36.6801 51.2416 35.7173 50.4177L33.3972 51.757L29.925 45.743L32.2434 44.4043C32.1294 43.7869 32.0698 43.1504 32.0698 42.5C32.0698 41.8495 32.1294 41.213 32.2434 40.5956L29.925 39.257L33.3972 33.243L35.7172 34.5824C36.68 33.7584 37.795 33.107 39.0141 32.6761L39.0142 30H45.9587ZM29.375 27.5C31.6525 27.5 33.7945 28.0967 35.6614 29.1463C30.8155 31.6328 27.5 36.6792 27.5 42.5C27.5 45.2321 28.2304 47.7936 29.5067 49.9999L7.5 50V41C7.5 33.7306 13.0861 27.8031 20.084 27.5113L20.625 27.5H29.375ZM42.4864 38.3333C40.1852 38.3333 38.3198 40.1988 38.3198 42.5C38.3198 44.8012 40.1852 46.6667 42.4864 46.6667C44.7876 46.6667 46.6531 44.8012 46.6531 42.5C46.6531 40.1988 44.7876 38.3333 42.4864 38.3333ZM25 5C29.8325 5 33.75 8.91751 33.75 13.75C33.75 18.4214 30.0893 22.2378 25.4801 22.4871L25 22.5C20.1675 22.5 16.25 18.5825 16.25 13.75C16.25 9.07859 19.9107 5.26218 24.5199 5.01295L25 5Z" fill="white"/>
</svg>
