<svg width="42" height="60" viewBox="0 0 42 60" fill="none" xmlns="http://www.w3.org/2000/svg">
<g clip-path="url(#clip0_1526_532)">
<path d="M25.9639 5.20274C25.9645 6.2324 25.6597 7.2391 25.088 8.0955C24.5163 8.95189 23.7036 9.61952 22.7524 10.0139C21.8013 10.4083 20.7546 10.5118 19.7446 10.3113C18.7347 10.1107 17.8069 9.61517 17.0786 8.88728C16.3503 8.15939 15.8543 7.23187 15.6532 6.22203C15.4521 5.21219 15.5551 4.1654 15.949 3.21406C16.3429 2.26273 17.0101 1.44958 17.8662 0.877472C18.7223 0.305365 19.7288 1.42613e-07 20.7585 0C22.1386 -1.9115e-07 23.4622 0.548057 24.4383 1.52368C25.4145 2.49931 25.9632 3.82264 25.9639 5.20274ZM24.9886 13.4247H16.5283C15.3948 13.4244 14.2937 13.8031 13.4001 14.5006C12.5066 15.1981 11.8718 16.1743 11.5968 17.274L7.0434 35.4986C6.98269 35.7722 6.98571 36.0561 7.05222 36.3283C7.11873 36.6005 7.24695 36.8537 7.42696 37.0685C7.64554 37.3438 7.92213 37.5676 8.23703 37.7239C8.55194 37.8801 8.89742 37.9651 9.24888 37.9726C9.63365 37.9666 10.0082 37.848 10.3262 37.6313C10.6442 37.4146 10.8917 37.1094 11.0379 36.7534L15.279 21.9178V32.6027L12.753 57.8603C12.7258 58.1309 12.7556 58.4042 12.8406 58.6626C12.9256 58.9209 13.0638 59.1586 13.2464 59.3602C13.4289 59.5619 13.6517 59.723 13.9003 59.8332C14.149 59.9434 14.418 60.0002 14.69 60H14.8927C15.3336 59.9999 15.7606 59.8456 16.0998 59.5639C16.439 59.2823 16.6691 58.8909 16.7503 58.4575L20.7585 36.9397L24.7667 58.4575C24.8478 58.8909 25.0779 59.2823 25.4171 59.5639C25.7563 59.8456 26.1833 59.9999 26.6242 60H26.827C27.0989 60.0002 27.368 59.9434 27.6166 59.8332C27.8653 59.723 28.0881 59.5619 28.2706 59.3602C28.4531 59.1586 28.5913 58.9209 28.6763 58.6626C28.7613 58.4042 28.7911 58.1309 28.764 57.8603L26.2379 32.6027V21.9178L30.479 36.7534C30.6257 37.1088 30.8733 37.4135 31.1913 37.6297C31.5093 37.8459 31.8836 37.9641 32.2681 37.9699C32.6193 37.9626 32.9646 37.8781 33.2795 37.7224C33.5944 37.5666 33.8711 37.3433 34.09 37.0685C34.27 36.8537 34.3982 36.6005 34.4647 36.3283C34.5312 36.0561 34.5343 35.7722 34.4735 35.4986L29.9201 17.274C29.6451 16.1743 29.0104 15.1981 28.1168 14.5006C27.2233 13.8031 26.1222 13.4244 24.9886 13.4247Z" fill="white"/>
</g>
<defs>
<clipPath id="clip0_1526_532">
<rect width="42" height="60" fill="white"/>
</clipPath>
</defs>
</svg>
