<svg width="46" height="46" viewBox="0 0 46 46" fill="none" xmlns="http://www.w3.org/2000/svg">
<path fill-rule="evenodd" clip-rule="evenodd" d="M16.88 25.2406C16.2252 26.7392 15.8558 28.391 15.8403 30.1274L15.8398 30.2407V45.2407L0.839844 45.2407V35.2407C0.839844 29.771 5.22579 25.3303 10.6744 25.2421L10.8398 25.2407L16.88 25.2406ZM35.8398 20.2407C41.3627 20.2407 45.8398 24.7179 45.8398 30.2407V45.2407H18.3398V30.2407C18.3398 24.7179 22.817 20.2407 28.3398 20.2407H35.8398ZM13.3398 7.74072C17.4748 7.74072 20.8398 11.1057 20.8398 15.2407C20.8398 19.3757 17.4748 22.7407 13.3398 22.7407C9.20484 22.7407 5.83984 19.3757 5.83984 15.2407C5.83984 11.1057 9.20484 7.74072 13.3398 7.74072ZM32.0898 0.240723C36.9148 0.240723 40.8398 4.16572 40.8398 8.99072C40.8398 13.8157 36.9148 17.7407 32.0898 17.7407C27.2648 17.7407 23.3398 13.8157 23.3398 8.99072C23.3398 4.16572 27.2648 0.240723 32.0898 0.240723Z" fill="white"/>
</svg>
