<svg width="50" height="50" viewBox="0 0 50 50" fill="none" xmlns="http://www.w3.org/2000/svg">
<rect x="5" width="45" height="50" rx="3" fill="white"/>
<path d="M22 31H34M22 31C22 32.6569 20.6569 34 19 34C17.3431 34 16 32.6569 16 31M22 31C22 29.3431 20.6569 28 19 28C17.3431 28 16 29.3431 16 31M34 31C34 32.6569 35.3431 34 37 34C38.6569 34 40 32.6569 40 31M34 31C34 29.3431 35.3431 28 37 28C38.6569 28 40 29.3431 40 31M16 31H15.4C14.5599 31 14.1399 31 13.819 30.8365C13.5368 30.6927 13.3073 30.4633 13.1635 30.181C13 29.8602 13 29.4401 13 28.6V26.8C13 25.1198 13 24.2797 13.327 23.638C13.6146 23.0736 14.0735 22.6146 14.638 22.327C15.2798 22 16.1198 22 17.8 22H35.8C36.9148 22 37.4722 22 37.9385 22.0738C40.5059 22.4805 42.5195 24.4941 42.9262 27.0615C43 27.5278 43 28.0852 43 29.2C43 29.4787 43 29.6181 42.9815 29.7346C42.8798 30.3765 42.3765 30.8798 41.7346 30.9815C41.6181 31 41.4787 31 41.2 31H40M25 13V22M16 22L16.4973 19.0163C16.8535 16.8789 17.0316 15.8102 17.565 15.0082C18.0351 14.3012 18.6956 13.7417 19.4702 13.3942C20.3489 13 21.4324 13 23.5993 13H28.6466C30.0554 13 30.7599 13 31.3993 13.1942C31.9654 13.3661 32.4919 13.6479 32.949 14.0235C33.4653 14.4478 33.856 15.034 34.6375 16.2062L38.5 22" stroke="#174858" stroke-width="3" stroke-linecap="round" stroke-linejoin="round"/>
<rect y="13" width="5" height="5" fill="white"/>
<rect y="23" width="5" height="5" fill="white"/>
<rect y="33" width="5" height="5" fill="white"/>
</svg>
