<svg width="49" height="50" viewBox="0 0 49 50" fill="none" xmlns="http://www.w3.org/2000/svg">
<path fill-rule="evenodd" clip-rule="evenodd" d="M38.9587 25L38.9587 27.6761C40.1779 28.107 41.2928 28.7584 42.2557 29.5824L44.5756 28.243L48.0479 34.257L45.7294 35.5957C45.8435 36.2131 45.9031 36.8496 45.9031 37.5C45.9031 38.1504 45.8435 38.7869 45.7294 39.4043L48.0479 40.743L44.5756 46.757L42.2557 45.4176C41.2928 46.2416 40.1779 46.893 38.9587 47.3239L38.9587 50H32.0142L32.0141 47.3239C30.795 46.893 29.6801 46.2416 28.7173 45.4177L26.3972 46.757L22.925 40.743L25.2434 39.4043C25.1294 38.7869 25.0698 38.1504 25.0698 37.5C25.0698 36.8495 25.1294 36.213 25.2434 35.5956L22.925 34.257L26.3972 28.243L28.7172 29.5824C29.68 28.7584 30.795 28.107 32.0141 27.6761L32.0142 25H38.9587ZM22.375 22.5C24.6525 22.5 26.7945 23.0967 28.6614 24.1463C23.8155 26.6328 20.5 31.6792 20.5 37.5C20.5 40.2321 21.2304 42.7936 22.5067 44.9999L0.5 45V36C0.5 28.7306 6.08612 22.8031 13.084 22.5113L13.625 22.5H22.375ZM35.4864 33.3333C33.1852 33.3333 31.3198 35.1988 31.3198 37.5C31.3198 39.8012 33.1852 41.6667 35.4864 41.6667C37.7876 41.6667 39.6531 39.8012 39.6531 37.5C39.6531 35.1988 37.7876 33.3333 35.4864 33.3333ZM18 0C22.8325 0 26.75 3.91751 26.75 8.75C26.75 13.4214 23.0893 17.2378 18.4801 17.4871L18 17.5C13.1675 17.5 9.25 13.5825 9.25 8.75C9.25 4.07859 12.9107 0.262184 17.5199 0.0129472L18 0Z" fill="white"/>
</svg>
