<svg width="44" height="60" viewBox="0 0 44 60" fill="none" xmlns="http://www.w3.org/2000/svg">
<path d="M42.8728 28.0126L39.0014 22.6046C38.0611 21.328 36.8392 20.2868 35.4298 19.5592L27.5222 15.4086C25.6951 14.6638 24.3762 14.0518 22.4655 13.9637L20.2575 13.9008C18.8893 13.8778 17.4994 14.308 16.5439 15.2884L9.01852 22.0428L2.49973 23.8309C1.26527 24.1707 0.512577 25.4166 0.785975 26.6669L0.808944 26.7632C1.07777 27.9929 2.25035 28.8063 3.49746 28.629L8.74863 27.8797C10.0586 27.6933 11.3228 27.2676 12.4782 26.6248L15.6518 24.4832L15.8142 35.0163C15.7821 35.8641 15.7638 36.4428 15.408 37.0618L4.64613 55.7553C3.87726 57.0882 4.33148 58.7905 5.65969 59.5651L5.75238 59.6189C7.00969 60.3521 8.6182 59.9987 9.45105 58.8066L21.745 41.4194L26.4538 51.7249C26.8177 52.2042 27.258 52.6195 27.758 52.9536L37.1551 59.2471C38.338 60.0398 39.935 59.7881 40.8183 58.6693L40.9236 58.5343C41.3755 57.961 41.578 57.2312 41.4887 56.5058C41.3982 55.7817 41.022 55.1238 40.443 54.6789L32.3386 48.4518L27.6458 35.1901L28.0645 23.3025L33.6909 24.9921L39.608 30.8016C40.3516 31.5326 41.5186 31.6139 42.356 30.9926L42.4133 30.9503C43.3418 30.2618 43.5478 28.9541 42.8728 28.0126Z" fill="white"/>
<path d="M20.0941 11.6275C23.2848 12.116 26.2685 9.92402 26.7582 6.73219C27.2455 3.54035 25.0536 0.55664 21.8617 0.0680853C18.6698 -0.420352 15.6861 1.77152 15.1987 4.96348C14.7091 8.15543 16.9022 11.139 20.0941 11.6275Z" fill="white"/>
</svg>
