<svg width="24" height="24" viewBox="0 0 24 24" fill="none" xmlns="http://www.w3.org/2000/svg">
<path d="M11.9467 2.10662H4.48667C3.11332 2.10662 2 3.21994 2 4.5933V19.5134C2 20.8866 3.11332 22 4.48667 22H19.4067C20.7801 22 21.8934 20.8866 21.8934 19.5134V12.0534M19.9217 7.59496L21.2717 6.24501C22.2428 5.2739 22.2428 3.69942 21.2717 2.72833C20.3005 1.75722 18.7261 1.75722 17.7549 2.72834L16.405 4.07828M19.9217 7.59496L12.4165 15.1001C12.0694 15.4473 11.6273 15.684 11.146 15.7803L7.48836 16.5117L8.21988 12.8542C8.31616 12.3728 8.55278 11.9306 8.89991 11.5835L16.405 4.07828M19.9217 7.59496L16.405 4.07828" stroke="#1B599B" stroke-width="2.5" stroke-linecap="round" stroke-linejoin="round"/>
</svg>
