<svg width="26" height="26" viewBox="0 0 26 26" fill="none" xmlns="http://www.w3.org/2000/svg">
<path fill-rule="evenodd" clip-rule="evenodd" d="M0.5 0.5H25.5V25.5H0.5V0.5ZM3 3H23V23H3V3Z" fill="#1B599B"/>
<path d="M15.2729 9.78027C15.2099 9.19102 14.9445 8.73221 14.4767 8.40385C14.0134 8.07549 13.4107 7.91131 12.6685 7.91131C12.1467 7.91131 11.6992 7.99003 11.3258 8.14746C10.9525 8.30489 10.6668 8.51855 10.4689 8.78844C10.271 9.05833 10.1698 9.36645 10.1653 9.7128C10.1653 10.0007 10.2305 10.2503 10.361 10.4617C10.4959 10.6731 10.6781 10.8531 10.9075 11.0015C11.1369 11.1454 11.391 11.2669 11.6699 11.3659C11.9488 11.4648 12.2299 11.548 12.5133 11.6155L13.8088 11.9394C14.3306 12.0608 14.8321 12.225 15.3134 12.4319C15.7992 12.6388 16.2333 12.8997 16.6156 13.2146C17.0024 13.5294 17.3083 13.9095 17.5332 14.3548C17.7581 14.8002 17.8706 15.3219 17.8706 15.9202C17.8706 16.7298 17.6636 17.4428 17.2498 18.059C16.836 18.6708 16.2377 19.1498 15.4551 19.4962C14.6769 19.838 13.7346 20.009 12.628 20.009C11.553 20.009 10.6196 19.8425 9.82795 19.5097C9.04078 19.1768 8.42454 18.691 7.97923 18.0523C7.53841 17.4136 7.30001 16.6354 7.26403 15.7178H9.72674C9.76273 16.1991 9.91116 16.5994 10.1721 16.9188C10.4329 17.2381 10.7725 17.4765 11.1909 17.634C11.6137 17.7914 12.086 17.8701 12.6078 17.8701C13.152 17.8701 13.6288 17.7892 14.0382 17.6272C14.452 17.4608 14.7759 17.2314 15.0098 16.939C15.2437 16.6421 15.3629 16.2958 15.3674 15.8999C15.3629 15.5401 15.2572 15.2432 15.0502 15.0093C14.8433 14.7709 14.5532 14.573 14.1799 14.4156C13.811 14.2536 13.3792 14.1097 12.8844 13.9838L11.3123 13.5789C10.1743 13.2865 9.27468 12.8435 8.61346 12.2497C7.95674 11.6515 7.62837 10.8576 7.62837 9.86799C7.62837 9.05383 7.84878 8.34088 8.2896 7.72914C8.73491 7.11739 9.3399 6.64284 10.1046 6.30549C10.8693 5.96363 11.7351 5.7927 12.7022 5.7927C13.6828 5.7927 14.542 5.96363 15.2797 6.30549C16.0218 6.64284 16.6043 7.1129 17.0272 7.71564C17.45 8.31389 17.6681 9.0021 17.6816 9.78027H15.2729Z" fill="#1B599B"/>
</svg>
