<svg width="22" height="22" viewBox="0 0 22 22" fill="none" xmlns="http://www.w3.org/2000/svg">
<path fill-rule="evenodd" clip-rule="evenodd" d="M22 5.50611C22 5.99234 21.8068 6.45866 21.463 6.80247C21.1192 7.14629 20.6529 7.33945 20.1667 7.33945H16.5C16.0138 7.33945 15.5475 7.14629 15.2036 6.80247C14.8598 6.45866 14.6667 5.99234 14.6667 5.50611V1.83333C14.6667 1.3471 14.8598 0.880788 15.2036 0.536971C15.5475 0.193154 16.0138 0 16.5 0H20.1667C20.6529 0 21.1192 0.193154 21.463 0.536971C21.8068 0.880788 22 1.3471 22 1.83333V5.50611ZM7.33333 5.5V1.83822C7.33333 1.35242 7.14052 0.88647 6.79723 0.542723C6.45394 0.198977 5.98825 0.00553657 5.50244 0.00488883L1.83578 0.00122213C1.59492 0.000900934 1.35636 0.0480439 1.13372 0.139957C0.91109 0.231871 0.708751 0.366753 0.538267 0.536896C0.367783 0.707039 0.232497 0.909109 0.140139 1.13156C0.0477803 1.35401 0.000160359 1.59247 0 1.83333V5.5C0 5.98623 0.193154 6.45255 0.536971 6.79636C0.880788 7.14018 1.3471 7.33333 1.83333 7.33333H5.5C5.98623 7.33333 6.45255 7.14018 6.79636 6.79636C7.14018 6.45255 7.33333 5.98623 7.33333 5.5ZM2.44444 4.88889V2.44567L4.88889 2.44811V4.88889H2.44444ZM1.83089 14.6716L5.49756 14.6679C5.73842 14.6676 5.97698 14.7147 6.19961 14.8066C6.42224 14.8985 6.62458 15.0334 6.79507 15.2036C6.96555 15.3737 7.10084 15.5758 7.19319 15.7982C7.28555 16.0207 7.33317 16.2591 7.33333 16.5V20.1667C7.33333 20.6529 7.14018 21.1192 6.79636 21.463C6.45255 21.8068 5.98623 22 5.5 22H1.83333C1.3471 22 0.880788 21.8068 0.536971 21.463C0.193154 21.1192 0 20.6529 0 20.1667V16.5049C-4.31828e-07 16.0191 0.192818 15.5531 0.536106 15.2094C0.879395 14.8656 1.34508 14.6722 1.83089 14.6716ZM4.88889 19.5556H2.44444V17.1148L4.88889 17.1123V19.5556ZM19.5556 2.44444V4.895H17.1111V2.44444H19.5556ZM19.5556 15.8889C19.5556 15.5647 19.6843 15.2539 19.9135 15.0246C20.1427 14.7954 20.4536 14.6667 20.7778 14.6667C21.1019 14.6667 21.4128 14.7954 21.642 15.0246C21.8712 15.2539 22 15.5647 22 15.8889V20.1667C22 20.6525 21.8072 21.1184 21.4639 21.4622C21.1206 21.8059 20.6549 21.9994 20.1691 22L15.8913 22.0061C15.7308 22.0064 15.5718 21.975 15.4235 21.9138C15.2751 21.8526 15.1402 21.7628 15.0266 21.6494C14.9129 21.5361 14.8227 21.4015 14.761 21.2533C14.6994 21.1051 14.6675 20.9462 14.6673 20.7857C14.667 20.6252 14.6984 20.4662 14.7596 20.3179C14.8208 20.1695 14.9106 20.0346 15.024 19.9209C15.1373 19.8073 15.2719 19.717 15.4201 19.6554C15.5683 19.5938 15.7272 19.5619 15.8877 19.5617L19.5556 19.5556V15.8889ZM9.77778 1.22222V9.77778H1.22222C0.898069 9.77778 0.587192 9.90655 0.357981 10.1358C0.128769 10.365 0 10.6758 0 11C0 11.3242 0.128769 11.635 0.357981 11.8642C0.587192 12.0935 0.898069 12.2222 1.22222 12.2222H11C11.3242 12.2222 11.635 12.0935 11.8642 11.8642C12.0935 11.635 12.2222 11.3242 12.2222 11V1.22222C12.2222 0.898069 12.0935 0.587192 11.8642 0.357981C11.635 0.128769 11.3242 0 11 0C10.6758 0 10.365 0.128769 10.1358 0.357981C9.90655 0.587192 9.77778 0.898069 9.77778 1.22222ZM12.2222 20.7778C12.2222 21.1019 12.0935 21.4128 11.8642 21.642C11.635 21.8712 11.3242 22 11 22C10.6758 22 10.365 21.8712 10.1358 21.642C9.90655 21.4128 9.77778 21.1019 9.77778 20.7778V15.8889C9.77778 15.5647 9.90655 15.2539 10.1358 15.0246C10.365 14.7954 10.6758 14.6667 11 14.6667C11.3242 14.6667 11.635 14.7954 11.8642 15.0246C12.0935 15.2539 12.2222 15.5647 12.2222 15.8889V20.7778ZM15.8889 17.1111C16.213 17.1111 16.5239 16.9823 16.7531 16.7531C16.9823 16.5239 17.1111 16.213 17.1111 15.8889V12.2222H20.7778C21.1019 12.2222 21.4128 12.0935 21.642 11.8642C21.8712 11.635 22 11.3242 22 11C22 10.6758 21.8712 10.365 21.642 10.1358C21.4128 9.90655 21.1019 9.77778 20.7778 9.77778H15.8889C15.5647 9.77778 15.2539 9.90655 15.0246 10.1358C14.7954 10.365 14.6667 10.6758 14.6667 11V15.8889C14.6667 16.213 14.7954 16.5239 15.0246 16.7531C15.2539 16.9823 15.5647 17.1111 15.8889 17.1111Z" fill="#1B599B"/>
</svg>
