<svg width="23" height="23" viewBox="0 0 23 23" fill="none" xmlns="http://www.w3.org/2000/svg">
<path d="M11.5 0.875004C9.39858 0.875004 7.34434 1.49815 5.59707 2.66564C3.8498 3.83313 2.48797 5.49253 1.68378 7.43399C0.879604 9.37546 0.669193 11.5118 1.07916 13.5728C1.48913 15.6339 2.50106 17.5271 3.987 19.013C5.47293 20.4989 7.36612 21.5109 9.42717 21.9208C11.4882 22.3308 13.6246 22.1204 15.566 21.3162C17.5075 20.512 19.1669 19.1502 20.3344 17.4029C21.5019 15.6557 22.125 13.6014 22.125 11.5C22.1262 10.1044 21.8521 8.72224 21.3186 7.43263C20.785 6.14303 20.0024 4.97128 19.0156 3.98443C18.0287 2.99758 16.857 2.21499 15.5674 1.68144C14.2778 1.14789 12.8956 0.873853 11.5 0.875004ZM11.5 19.625C9.89303 19.625 8.32215 19.1485 6.986 18.2557C5.64985 17.3629 4.60845 16.094 3.99348 14.6093C3.37852 13.1247 3.21762 11.491 3.53112 9.9149C3.84463 8.3388 4.61846 6.89106 5.75476 5.75476C6.89106 4.61846 8.3388 3.84463 9.9149 3.53112C11.491 3.21762 13.1247 3.37852 14.6093 3.99348C16.094 4.60844 17.3629 5.64985 18.2557 6.986C19.1485 8.32215 19.625 9.89303 19.625 11.5C19.6271 12.5676 19.4184 13.6251 19.0109 14.6118C18.6033 15.5986 18.0049 16.4951 17.25 17.25C16.4951 18.0049 15.5986 18.6033 14.6118 19.0109C13.6251 19.4184 12.5676 19.6271 11.5 19.625ZM14.625 8.1875L11 12.5625L8.5 10.75C7.9375 10.3125 7.1875 10.4375 6.75 11C6.3125 11.5625 6.4375 12.3125 7 12.75C7.75 13.3125 8.5625 13.875 9.3125 14.4375C9.875 14.8125 10.375 15.375 11.0625 15.4375C11.25 15.4375 11.5 15.4375 11.6875 15.3125L12.0625 14.9375L14.875 11.5625C15.375 10.9375 15.875 10.375 16.375 9.75C16.75 9.25 16.875 8.625 16.4375 8.125L16.25 7.9375C15.8125 7.625 15.0625 7.6875 14.625 8.1875Z" fill="#1B599B"/>
</svg>
