<svg width="500" height="774" viewBox="0 0 500 774" fill="none" xmlns="http://www.w3.org/2000/svg">
<rect x="1.5" y="1.5" width="497" height="771" rx="43.5" fill="white" stroke="black" stroke-width="3"/>
<rect x="17.5" y="14.5" width="466" height="744" rx="32.5" fill="#FF0000" stroke="black" stroke-width="3"/>
<path d="M175.159 97V75.1675H181.757L185.718 90.0601L189.635 75.1675H196.247V97H192.152V79.814L187.818 97H183.574L179.255 79.814V97H175.159ZM200.596 79.0396V75.1675H204.781V79.0396H200.596ZM200.596 97V81.1841H204.781V97H200.596ZM223.471 97H219.286V88.9282C219.286 87.2205 219.197 86.1185 219.018 85.6221C218.839 85.1157 218.546 84.7236 218.139 84.4456C217.742 84.1676 217.261 84.0286 216.695 84.0286C215.97 84.0286 215.32 84.2271 214.744 84.6243C214.168 85.0214 213.771 85.5476 213.552 86.2029C213.344 86.8582 213.24 88.0694 213.24 89.8367V97H209.055V81.1841H212.942V83.5073C214.322 81.7202 216.059 80.8267 218.154 80.8267C219.078 80.8267 219.922 80.9954 220.686 81.333C221.451 81.6606 222.026 82.0826 222.414 82.5989C222.811 83.1152 223.084 83.7009 223.233 84.3562C223.392 85.0115 223.471 85.9497 223.471 87.1709V97ZM227.73 79.0396V75.1675H231.915V79.0396H227.73ZM227.73 97V81.1841H231.915V97H227.73ZM234.745 92.4875L238.944 91.8472C239.123 92.6613 239.485 93.2818 240.031 93.7087C240.578 94.1257 241.342 94.3342 242.325 94.3342C243.407 94.3342 244.221 94.1357 244.767 93.7385C245.135 93.4605 245.318 93.0882 245.318 92.6216C245.318 92.3039 245.219 92.0408 245.021 91.8323C244.812 91.6337 244.345 91.45 243.621 91.2812C240.245 90.5366 238.105 89.8565 237.202 89.241C235.951 88.3871 235.325 87.2007 235.325 85.6816C235.325 84.3115 235.867 83.1598 236.949 82.2266C238.031 81.2933 239.709 80.8267 241.982 80.8267C244.147 80.8267 245.755 81.1791 246.808 81.884C247.86 82.5889 248.585 83.6314 248.982 85.0115L245.035 85.7412C244.867 85.1257 244.544 84.6541 244.067 84.3264C243.601 83.9988 242.931 83.835 242.057 83.835C240.955 83.835 240.166 83.9889 239.689 84.2966C239.371 84.5151 239.212 84.798 239.212 85.1455C239.212 85.4434 239.351 85.6965 239.629 85.905C240.007 86.183 241.307 86.5752 243.531 87.0815C245.765 87.5879 247.324 88.2084 248.208 88.9431C249.081 89.6877 249.518 90.7253 249.518 92.0557C249.518 93.5052 248.912 94.7512 247.701 95.7937C246.49 96.8362 244.698 97.3574 242.325 97.3574C240.17 97.3574 238.463 96.9206 237.202 96.0469C235.951 95.1732 235.132 93.9867 234.745 92.4875ZM260.449 81.1841V84.52H257.59V90.894C257.59 92.1847 257.615 92.9393 257.664 93.1577C257.724 93.3662 257.848 93.54 258.037 93.679C258.235 93.818 258.473 93.8875 258.751 93.8875C259.139 93.8875 259.7 93.7534 260.434 93.4854L260.792 96.7319C259.819 97.1489 258.717 97.3574 257.486 97.3574C256.731 97.3574 256.051 97.2333 255.445 96.9851C254.84 96.727 254.393 96.3993 254.105 96.0022C253.827 95.5951 253.633 95.0491 253.524 94.364C253.435 93.8775 253.39 92.8946 253.39 91.4153V84.52H251.469V81.1841H253.39V78.0417L257.59 75.5994V81.1841H260.449ZM272.512 91.9663L276.682 92.6663C276.146 94.1952 275.297 95.3618 274.135 96.166C272.984 96.9603 271.539 97.3574 269.802 97.3574C267.052 97.3574 265.016 96.4589 263.696 94.6619C262.653 93.2222 262.132 91.4054 262.132 89.2112C262.132 86.5901 262.817 84.5399 264.187 83.0605C265.557 81.5713 267.29 80.8267 269.385 80.8267C271.738 80.8267 273.594 81.606 274.955 83.1648C276.315 84.7136 276.965 87.0915 276.906 90.2983H266.421C266.451 91.5394 266.788 92.5074 267.434 93.2024C268.079 93.8875 268.883 94.23 269.846 94.23C270.502 94.23 271.053 94.0513 271.5 93.6938C271.946 93.3364 272.284 92.7606 272.512 91.9663ZM272.75 87.7368C272.721 86.5256 272.408 85.6072 271.812 84.9817C271.217 84.3463 270.492 84.0286 269.638 84.0286C268.725 84.0286 267.97 84.3612 267.374 85.0264C266.779 85.6916 266.486 86.5951 266.496 87.7368H272.75ZM267.404 79.248L269.459 74.7952H274.15L270.055 79.248H267.404ZM284.337 97H280.152V81.1841H284.039V83.4329C284.704 82.3705 285.3 81.6706 285.826 81.333C286.362 80.9954 286.968 80.8267 287.643 80.8267C288.596 80.8267 289.515 81.0898 290.398 81.616L289.103 85.2646C288.398 84.8079 287.742 84.5796 287.137 84.5796C286.551 84.5796 286.055 84.7434 285.647 85.071C285.24 85.3888 284.918 85.9696 284.679 86.8135C284.451 87.6574 284.337 89.4246 284.337 92.1152V97ZM292.215 79.0396V75.1675H296.4V79.0396H292.215ZM292.215 97V81.1841H296.4V97H292.215ZM299.736 88.8687C299.736 87.4787 300.078 86.1334 300.763 84.8328C301.448 83.5321 302.417 82.5393 303.667 81.8542C304.928 81.1692 306.333 80.8267 307.882 80.8267C310.275 80.8267 312.236 81.606 313.765 83.1648C315.294 84.7136 316.058 86.6745 316.058 89.0474C316.058 91.4401 315.284 93.4258 313.735 95.0044C312.196 96.5731 310.255 97.3574 307.912 97.3574C306.462 97.3574 305.077 97.0298 303.757 96.3745C302.446 95.7192 301.448 94.7611 300.763 93.5002C300.078 92.2294 299.736 90.6855 299.736 88.8687ZM304.025 89.092C304.025 90.6607 304.397 91.8621 305.142 92.696C305.886 93.53 306.805 93.947 307.897 93.947C308.989 93.947 309.903 93.53 310.637 92.696C311.382 91.8621 311.754 90.6508 311.754 89.0623C311.754 87.5134 311.382 86.322 310.637 85.488C309.903 84.6541 308.989 84.2371 307.897 84.2371C306.805 84.2371 305.886 84.6541 305.142 85.488C304.397 86.322 304.025 87.5234 304.025 89.092ZM342.344 97H338.457V94.6768C337.811 95.5802 337.047 96.2554 336.163 96.7021C335.289 97.139 334.406 97.3574 333.512 97.3574C331.695 97.3574 330.137 96.6277 328.836 95.1682C327.545 93.6988 326.9 91.6536 326.9 89.0325C326.9 86.3518 327.53 84.3165 328.791 82.9265C330.052 81.5266 331.646 80.8267 333.572 80.8267C335.339 80.8267 336.868 81.5614 338.159 83.0308V75.1675H342.344V97ZM331.174 88.7495C331.174 90.4373 331.407 91.6585 331.874 92.4131C332.549 93.5052 333.492 94.0513 334.704 94.0513C335.667 94.0513 336.486 93.6442 337.161 92.8301C337.836 92.006 338.174 90.7799 338.174 89.1516C338.174 87.3347 337.846 86.0291 337.191 85.2349C336.535 84.4307 335.696 84.0286 334.674 84.0286C333.681 84.0286 332.847 84.4257 332.172 85.22C331.507 86.0043 331.174 87.1808 331.174 88.7495ZM349.611 86.0093L345.813 85.3242C346.24 83.7952 346.975 82.6634 348.018 81.9287C349.06 81.194 350.609 80.8267 352.664 80.8267C354.531 80.8267 355.921 81.05 356.834 81.4968C357.747 81.9337 358.388 82.4946 358.755 83.1797C359.132 83.8548 359.321 85.1008 359.321 86.9177L359.276 91.8025C359.276 93.1925 359.341 94.2201 359.47 94.8853C359.609 95.5405 359.862 96.2454 360.229 97H356.089C355.98 96.722 355.846 96.31 355.687 95.7639C355.618 95.5157 355.568 95.3519 355.538 95.2725C354.823 95.9674 354.059 96.4887 353.245 96.8362C352.431 97.1837 351.562 97.3574 350.639 97.3574C349.01 97.3574 347.725 96.9156 346.781 96.032C345.848 95.1484 345.382 94.0314 345.382 92.6812C345.382 91.7876 345.595 90.9933 346.022 90.2983C346.449 89.5934 347.045 89.0573 347.809 88.6899C348.583 88.3127 349.695 87.985 351.145 87.707C353.101 87.3397 354.456 86.9972 355.211 86.6794V86.2625C355.211 85.4583 355.012 84.8874 354.615 84.5498C354.218 84.2023 353.468 84.0286 352.366 84.0286C351.622 84.0286 351.041 84.1775 350.624 84.4753C350.207 84.7633 349.869 85.2746 349.611 86.0093ZM355.211 89.4048C354.675 89.5835 353.826 89.797 352.664 90.0452C351.502 90.2934 350.743 90.5366 350.385 90.7749C349.839 91.1621 349.566 91.6536 349.566 92.2493C349.566 92.835 349.785 93.3414 350.222 93.7683C350.659 94.1952 351.215 94.4087 351.89 94.4087C352.644 94.4087 353.364 94.1605 354.049 93.6641C354.555 93.2868 354.888 92.8251 355.047 92.2791C355.156 91.9216 355.211 91.2415 355.211 90.2388V89.4048ZM371.965 75.1675H380.022C381.839 75.1675 383.224 75.3065 384.177 75.5845C385.458 75.9618 386.555 76.6319 387.468 77.595C388.381 78.558 389.076 79.7395 389.553 81.1394C390.03 82.5294 390.268 84.247 390.268 86.2922C390.268 88.0893 390.044 89.6381 389.598 90.9387C389.052 92.5273 388.272 93.813 387.26 94.7959C386.495 95.5405 385.462 96.1213 384.162 96.5383C383.189 96.8461 381.888 97 380.26 97H371.965V75.1675ZM376.373 78.8608V93.3215H379.664C380.895 93.3215 381.784 93.252 382.33 93.113C383.045 92.9343 383.636 92.6315 384.102 92.2046C384.579 91.7777 384.966 91.0777 385.264 90.1047C385.562 89.1218 385.711 87.7865 385.711 86.0986C385.711 84.4108 385.562 83.1152 385.264 82.2117C384.966 81.3082 384.549 80.6033 384.013 80.0969C383.477 79.5906 382.797 79.248 381.973 79.0693C381.357 78.9303 380.151 78.8608 378.354 78.8608H376.373ZM403.15 91.9663L407.32 92.6663C406.784 94.1952 405.935 95.3618 404.773 96.166C403.622 96.9603 402.177 97.3574 400.439 97.3574C397.689 97.3574 395.654 96.4589 394.333 94.6619C393.291 93.2222 392.77 91.4054 392.77 89.2112C392.77 86.5901 393.455 84.5399 394.825 83.0605C396.195 81.5713 397.928 80.8267 400.022 80.8267C402.375 80.8267 404.232 81.606 405.592 83.1648C406.952 84.7136 407.603 87.0915 407.543 90.2983H397.059C397.089 91.5394 397.426 92.5074 398.072 93.2024C398.717 93.8875 399.521 94.23 400.484 94.23C401.139 94.23 401.69 94.0513 402.137 93.6938C402.584 93.3364 402.922 92.7606 403.15 91.9663ZM403.388 87.7368C403.358 86.5256 403.046 85.6072 402.45 84.9817C401.854 84.3463 401.129 84.0286 400.276 84.0286C399.362 84.0286 398.608 84.3612 398.012 85.0264C397.416 85.6916 397.123 86.5951 397.133 87.7368H403.388ZM409.137 81.1841H411.46V79.9927C411.46 78.6623 411.599 77.6694 411.877 77.0142C412.165 76.3589 412.686 75.8277 413.441 75.4207C414.205 75.0037 415.168 74.7952 416.33 74.7952C417.521 74.7952 418.688 74.9739 419.83 75.3313L419.264 78.2502C418.598 78.0914 417.958 78.012 417.343 78.012C416.737 78.012 416.3 78.1559 416.032 78.4438C415.774 78.7218 415.645 79.2629 415.645 80.0671V81.1841H418.772V84.4753H415.645V97H411.46V84.4753H409.137V81.1841ZM430.284 91.9663L434.454 92.6663C433.918 94.1952 433.069 95.3618 431.907 96.166C430.756 96.9603 429.311 97.3574 427.574 97.3574C424.824 97.3574 422.788 96.4589 421.468 94.6619C420.425 93.2222 419.904 91.4054 419.904 89.2112C419.904 86.5901 420.589 84.5399 421.959 83.0605C423.329 81.5713 425.062 80.8267 427.157 80.8267C429.51 80.8267 431.366 81.606 432.727 83.1648C434.087 84.7136 434.737 87.0915 434.677 90.2983H424.193C424.223 91.5394 424.56 92.5074 425.206 93.2024C425.851 93.8875 426.655 94.23 427.618 94.23C428.274 94.23 428.825 94.0513 429.271 93.6938C429.718 93.3364 430.056 92.7606 430.284 91.9663ZM430.522 87.7368C430.493 86.5256 430.18 85.6072 429.584 84.9817C428.989 84.3463 428.264 84.0286 427.41 84.0286C426.497 84.0286 425.742 84.3612 425.146 85.0264C424.551 85.6916 424.258 86.5951 424.268 87.7368H430.522ZM436.628 92.4875L440.828 91.8472C441.007 92.6613 441.369 93.2818 441.915 93.7087C442.461 94.1257 443.226 94.3342 444.209 94.3342C445.291 94.3342 446.105 94.1357 446.651 93.7385C447.018 93.4605 447.202 93.0882 447.202 92.6216C447.202 92.3039 447.103 92.0408 446.904 91.8323C446.696 91.6337 446.229 91.45 445.504 91.2812C442.129 90.5366 439.989 89.8565 439.086 89.241C437.835 88.3871 437.209 87.2007 437.209 85.6816C437.209 84.3115 437.75 83.1598 438.833 82.2266C439.915 81.2933 441.593 80.8267 443.866 80.8267C446.031 80.8267 447.639 81.1791 448.691 81.884C449.744 82.5889 450.469 83.6314 450.866 85.0115L446.919 85.7412C446.75 85.1257 446.428 84.6541 445.951 84.3264C445.485 83.9988 444.814 83.835 443.941 83.835C442.839 83.835 442.049 83.9889 441.573 84.2966C441.255 84.5151 441.096 84.798 441.096 85.1455C441.096 85.4434 441.235 85.6965 441.513 85.905C441.89 86.183 443.191 86.5752 445.415 87.0815C447.649 87.5879 449.208 88.2084 450.091 88.9431C450.965 89.6877 451.402 90.7253 451.402 92.0557C451.402 93.5052 450.796 94.7512 449.585 95.7937C448.374 96.8362 446.582 97.3574 444.209 97.3574C442.054 97.3574 440.347 96.9206 439.086 96.0469C437.835 95.1732 437.016 93.9867 436.628 92.4875ZM458.208 86.0093L454.41 85.3242C454.837 83.7952 455.572 82.6634 456.614 81.9287C457.657 81.194 459.206 80.8267 461.261 80.8267C463.127 80.8267 464.517 81.05 465.431 81.4968C466.344 81.9337 466.984 82.4946 467.352 83.1797C467.729 83.8548 467.918 85.1008 467.918 86.9177L467.873 91.8025C467.873 93.1925 467.938 94.2201 468.067 94.8853C468.206 95.5405 468.459 96.2454 468.826 97H464.686C464.577 96.722 464.443 96.31 464.284 95.7639C464.214 95.5157 464.165 95.3519 464.135 95.2725C463.42 95.9674 462.656 96.4887 461.842 96.8362C461.027 97.1837 460.159 97.3574 459.235 97.3574C457.607 97.3574 456.321 96.9156 455.378 96.032C454.445 95.1484 453.978 94.0314 453.978 92.6812C453.978 91.7876 454.192 90.9933 454.619 90.2983C455.046 89.5934 455.641 89.0573 456.406 88.6899C457.18 88.3127 458.292 87.985 459.742 87.707C461.698 87.3397 463.053 86.9972 463.807 86.6794V86.2625C463.807 85.4583 463.609 84.8874 463.212 84.5498C462.815 84.2023 462.065 84.0286 460.963 84.0286C460.218 84.0286 459.637 84.1775 459.22 84.4753C458.803 84.7633 458.466 85.2746 458.208 86.0093ZM463.807 89.4048C463.271 89.5835 462.422 89.797 461.261 90.0452C460.099 90.2934 459.34 90.5366 458.982 90.7749C458.436 91.1621 458.163 91.6536 458.163 92.2493C458.163 92.835 458.382 93.3414 458.818 93.7683C459.255 94.1952 459.811 94.4087 460.486 94.4087C461.241 94.4087 461.961 94.1605 462.646 93.6641C463.152 93.2868 463.485 92.8251 463.644 92.2791C463.753 91.9216 463.807 91.2415 463.807 90.2388V89.4048Z" fill="white"/>
<path d="M187.004 115.552L190.437 116.641C189.911 118.555 189.033 119.978 187.805 120.911C186.585 121.837 185.034 122.299 183.152 122.299C180.823 122.299 178.909 121.506 177.409 119.918C175.91 118.323 175.16 116.146 175.16 113.387C175.16 110.468 175.914 108.203 177.421 106.592C178.929 104.973 180.911 104.163 183.367 104.163C185.512 104.163 187.255 104.797 188.595 106.065C189.392 106.815 189.99 107.892 190.389 109.295L186.884 110.133C186.677 109.224 186.242 108.506 185.58 107.979C184.926 107.453 184.129 107.19 183.188 107.19C181.888 107.19 180.831 107.656 180.017 108.59C179.212 109.523 178.809 111.034 178.809 113.124C178.809 115.341 179.208 116.92 180.005 117.861C180.803 118.802 181.84 119.272 183.116 119.272C184.057 119.272 184.866 118.973 185.544 118.375C186.222 117.777 186.709 116.836 187.004 115.552ZM192.686 115.468C192.686 114.352 192.961 113.271 193.511 112.226C194.062 111.182 194.839 110.384 195.844 109.834C196.857 109.283 197.986 109.008 199.23 109.008C201.152 109.008 202.727 109.634 203.955 110.886C205.183 112.131 205.797 113.706 205.797 115.612C205.797 117.534 205.175 119.129 203.931 120.397C202.695 121.657 201.136 122.287 199.254 122.287C198.089 122.287 196.977 122.024 195.916 121.498C194.863 120.971 194.062 120.202 193.511 119.189C192.961 118.168 192.686 116.928 192.686 115.468ZM196.131 115.648C196.131 116.908 196.43 117.873 197.029 118.543C197.627 119.213 198.364 119.548 199.242 119.548C200.119 119.548 200.853 119.213 201.443 118.543C202.041 117.873 202.34 116.9 202.34 115.624C202.34 114.38 202.041 113.423 201.443 112.753C200.853 112.083 200.119 111.748 199.242 111.748C198.364 111.748 197.627 112.083 197.029 112.753C196.43 113.423 196.131 114.388 196.131 115.648ZM208.19 109.295H211.288V111.03C212.397 109.682 213.717 109.008 215.248 109.008C216.062 109.008 216.767 109.176 217.365 109.511C217.964 109.846 218.454 110.352 218.837 111.03C219.395 110.352 219.997 109.846 220.643 109.511C221.289 109.176 221.979 109.008 222.713 109.008C223.646 109.008 224.436 109.2 225.082 109.583C225.728 109.957 226.21 110.512 226.529 111.245C226.76 111.788 226.876 112.665 226.876 113.877V122H223.514V114.739C223.514 113.478 223.399 112.665 223.167 112.298C222.856 111.82 222.378 111.58 221.732 111.58C221.261 111.58 220.819 111.724 220.404 112.011C219.989 112.298 219.69 112.721 219.507 113.279C219.323 113.829 219.232 114.703 219.232 115.899V122H215.87V115.038C215.87 113.801 215.81 113.004 215.691 112.645C215.571 112.286 215.384 112.019 215.128 111.844C214.881 111.668 214.542 111.58 214.112 111.58C213.593 111.58 213.127 111.72 212.712 111.999C212.297 112.278 211.998 112.681 211.815 113.207C211.639 113.734 211.552 114.607 211.552 115.827V122H208.19V109.295ZM232.75 113.171L229.699 112.621C230.042 111.393 230.632 110.484 231.47 109.894C232.307 109.303 233.551 109.008 235.202 109.008C236.701 109.008 237.818 109.188 238.552 109.547C239.285 109.898 239.8 110.348 240.095 110.898C240.398 111.441 240.55 112.442 240.55 113.901L240.514 117.825C240.514 118.941 240.566 119.767 240.669 120.301C240.781 120.828 240.984 121.394 241.279 122H237.954C237.866 121.777 237.758 121.446 237.631 121.007C237.575 120.808 237.535 120.676 237.511 120.612C236.937 121.171 236.323 121.589 235.669 121.868C235.015 122.148 234.317 122.287 233.575 122.287C232.267 122.287 231.234 121.932 230.477 121.222C229.727 120.513 229.352 119.615 229.352 118.531C229.352 117.813 229.524 117.175 229.867 116.617C230.21 116.05 230.688 115.62 231.302 115.325C231.924 115.022 232.818 114.758 233.982 114.535C235.553 114.24 236.642 113.965 237.248 113.71V113.375C237.248 112.729 237.088 112.27 236.769 111.999C236.45 111.72 235.848 111.58 234.963 111.58C234.365 111.58 233.898 111.7 233.563 111.939C233.228 112.17 232.957 112.581 232.75 113.171ZM237.248 115.899C236.817 116.042 236.135 116.214 235.202 116.413C234.269 116.613 233.659 116.808 233.372 117C232.933 117.311 232.714 117.705 232.714 118.184C232.714 118.654 232.889 119.061 233.24 119.404C233.591 119.747 234.038 119.918 234.58 119.918C235.186 119.918 235.764 119.719 236.315 119.32C236.721 119.017 236.989 118.646 237.116 118.208C237.204 117.921 237.248 117.374 237.248 116.569V115.899ZM255.431 122H252.07V115.516C252.07 114.144 251.998 113.259 251.854 112.86C251.711 112.454 251.476 112.139 251.149 111.915C250.83 111.692 250.443 111.58 249.988 111.58C249.406 111.58 248.884 111.74 248.421 112.059C247.959 112.378 247.64 112.801 247.464 113.327C247.297 113.853 247.213 114.826 247.213 116.246V122H243.851V109.295H246.974V111.162C248.082 109.726 249.478 109.008 251.161 109.008C251.902 109.008 252.58 109.144 253.194 109.415C253.808 109.678 254.271 110.017 254.582 110.432C254.901 110.847 255.12 111.317 255.24 111.844C255.368 112.37 255.431 113.124 255.431 114.104V122ZM270.505 122H267.382V120.134C266.864 120.86 266.25 121.402 265.54 121.761C264.838 122.112 264.128 122.287 263.411 122.287C261.951 122.287 260.699 121.701 259.654 120.529C258.618 119.348 258.099 117.705 258.099 115.6C258.099 113.447 258.606 111.812 259.618 110.695C260.631 109.571 261.911 109.008 263.458 109.008C264.878 109.008 266.106 109.598 267.143 110.779V104.462H270.505V122ZM261.532 115.373C261.532 116.728 261.72 117.709 262.095 118.315C262.637 119.193 263.395 119.631 264.368 119.631C265.141 119.631 265.799 119.304 266.342 118.65C266.884 117.988 267.155 117.003 267.155 115.696C267.155 114.236 266.892 113.187 266.365 112.549C265.839 111.903 265.165 111.58 264.344 111.58C263.546 111.58 262.876 111.899 262.334 112.537C261.8 113.167 261.532 114.112 261.532 115.373ZM273.053 115.468C273.053 114.352 273.328 113.271 273.878 112.226C274.428 111.182 275.206 110.384 276.211 109.834C277.224 109.283 278.352 109.008 279.596 109.008C281.518 109.008 283.094 109.634 284.322 110.886C285.55 112.131 286.164 113.706 286.164 115.612C286.164 117.534 285.542 119.129 284.298 120.397C283.062 121.657 281.503 122.287 279.62 122.287C278.456 122.287 277.343 122.024 276.283 121.498C275.23 120.971 274.428 120.202 273.878 119.189C273.328 118.168 273.053 116.928 273.053 115.468ZM276.498 115.648C276.498 116.908 276.797 117.873 277.395 118.543C277.993 119.213 278.731 119.548 279.608 119.548C280.486 119.548 281.219 119.213 281.81 118.543C282.408 117.873 282.707 116.9 282.707 115.624C282.707 114.38 282.408 113.423 281.81 112.753C281.219 112.083 280.486 111.748 279.608 111.748C278.731 111.748 277.993 112.083 277.395 112.753C276.797 113.423 276.498 114.388 276.498 115.648ZM307.279 122H304.156V120.134C303.638 120.86 303.024 121.402 302.314 121.761C301.612 122.112 300.902 122.287 300.185 122.287C298.725 122.287 297.473 121.701 296.428 120.529C295.391 119.348 294.873 117.705 294.873 115.6C294.873 113.447 295.379 111.812 296.392 110.695C297.405 109.571 298.685 109.008 300.232 109.008C301.652 109.008 302.88 109.598 303.917 110.779V104.462H307.279V122ZM298.306 115.373C298.306 116.728 298.494 117.709 298.869 118.315C299.411 119.193 300.169 119.631 301.142 119.631C301.915 119.631 302.573 119.304 303.115 118.65C303.658 117.988 303.929 117.003 303.929 115.696C303.929 114.236 303.666 113.187 303.139 112.549C302.613 111.903 301.939 111.58 301.118 111.58C300.32 111.58 299.65 111.899 299.108 112.537C298.574 113.167 298.306 114.112 298.306 115.373ZM313.116 113.171L310.066 112.621C310.409 111.393 310.999 110.484 311.836 109.894C312.674 109.303 313.918 109.008 315.569 109.008C317.068 109.008 318.185 109.188 318.918 109.547C319.652 109.898 320.167 110.348 320.462 110.898C320.765 111.441 320.916 112.442 320.916 113.901L320.88 117.825C320.88 118.941 320.932 119.767 321.036 120.301C321.148 120.828 321.351 121.394 321.646 122H318.32C318.233 121.777 318.125 121.446 317.997 121.007C317.941 120.808 317.902 120.676 317.878 120.612C317.303 121.171 316.689 121.589 316.035 121.868C315.381 122.148 314.684 122.287 313.942 122.287C312.634 122.287 311.601 121.932 310.844 121.222C310.094 120.513 309.719 119.615 309.719 118.531C309.719 117.813 309.89 117.175 310.233 116.617C310.576 116.05 311.055 115.62 311.669 115.325C312.291 115.022 313.184 114.758 314.349 114.535C315.92 114.24 317.008 113.965 317.615 113.71V113.375C317.615 112.729 317.455 112.27 317.136 111.999C316.817 111.72 316.215 111.58 315.33 111.58C314.731 111.58 314.265 111.7 313.93 111.939C313.595 112.17 313.324 112.581 313.116 113.171ZM317.615 115.899C317.184 116.042 316.502 116.214 315.569 116.413C314.636 116.613 314.026 116.808 313.739 117C313.3 117.311 313.081 117.705 313.081 118.184C313.081 118.654 313.256 119.061 313.607 119.404C313.958 119.747 314.404 119.918 314.947 119.918C315.553 119.918 316.131 119.719 316.681 119.32C317.088 119.017 317.355 118.646 317.483 118.208C317.571 117.921 317.615 117.374 317.615 116.569V115.899ZM345.99 122H342.138L340.607 118.016H333.597L332.149 122H328.393L335.224 104.462H338.968L345.99 122ZM339.471 115.062L337.054 108.554L334.686 115.062H339.471ZM355.214 117.957L358.563 118.519C358.133 119.747 357.451 120.684 356.518 121.33C355.593 121.968 354.432 122.287 353.037 122.287C350.827 122.287 349.193 121.565 348.132 120.122C347.294 118.965 346.876 117.506 346.876 115.743C346.876 113.638 347.426 111.991 348.527 110.803C349.627 109.606 351.019 109.008 352.702 109.008C354.592 109.008 356.083 109.634 357.176 110.886C358.268 112.131 358.791 114.041 358.743 116.617H350.321C350.345 117.614 350.616 118.391 351.135 118.949C351.653 119.5 352.299 119.775 353.073 119.775C353.599 119.775 354.042 119.631 354.4 119.344C354.759 119.057 355.03 118.595 355.214 117.957ZM355.405 114.559C355.381 113.586 355.13 112.848 354.652 112.346C354.173 111.836 353.591 111.58 352.905 111.58C352.171 111.58 351.565 111.847 351.087 112.382C350.608 112.916 350.373 113.642 350.381 114.559H355.405ZM364.712 122H361.351V109.295H364.473V111.102C365.007 110.248 365.486 109.686 365.909 109.415C366.339 109.144 366.826 109.008 367.368 109.008C368.134 109.008 368.872 109.22 369.581 109.642L368.541 112.573C367.974 112.206 367.448 112.023 366.961 112.023C366.491 112.023 366.092 112.155 365.765 112.418C365.438 112.673 365.179 113.139 364.988 113.817C364.804 114.495 364.712 115.915 364.712 118.076V122ZM370.263 115.468C370.263 114.352 370.538 113.271 371.089 112.226C371.639 111.182 372.417 110.384 373.421 109.834C374.434 109.283 375.563 109.008 376.807 109.008C378.729 109.008 380.304 109.634 381.532 110.886C382.76 112.131 383.375 113.706 383.375 115.612C383.375 117.534 382.752 119.129 381.508 120.397C380.272 121.657 378.713 122.287 376.831 122.287C375.666 122.287 374.554 122.024 373.493 121.498C372.44 120.971 371.639 120.202 371.089 119.189C370.538 118.168 370.263 116.928 370.263 115.468ZM373.708 115.648C373.708 116.908 374.008 117.873 374.606 118.543C375.204 119.213 375.942 119.548 376.819 119.548C377.696 119.548 378.43 119.213 379.02 118.543C379.618 117.873 379.917 116.9 379.917 115.624C379.917 114.38 379.618 113.423 379.02 112.753C378.43 112.083 377.696 111.748 376.819 111.748C375.942 111.748 375.204 112.083 374.606 112.753C374.008 113.423 373.708 114.388 373.708 115.648ZM397.574 122H394.213V115.516C394.213 114.144 394.141 113.259 393.998 112.86C393.854 112.454 393.619 112.139 393.292 111.915C392.973 111.692 392.586 111.58 392.131 111.58C391.549 111.58 391.027 111.74 390.564 112.059C390.102 112.378 389.783 112.801 389.607 113.327C389.44 113.853 389.356 114.826 389.356 116.246V122H385.994V109.295H389.117V111.162C390.225 109.726 391.621 109.008 393.304 109.008C394.045 109.008 394.723 109.144 395.337 109.415C395.951 109.678 396.414 110.017 396.725 110.432C397.044 110.847 397.263 111.317 397.383 111.844C397.511 112.37 397.574 113.124 397.574 114.104V122ZM403.508 113.171L400.458 112.621C400.8 111.393 401.391 110.484 402.228 109.894C403.065 109.303 404.31 109.008 405.96 109.008C407.46 109.008 408.576 109.188 409.31 109.547C410.044 109.898 410.558 110.348 410.853 110.898C411.156 111.441 411.308 112.442 411.308 113.901L411.272 117.825C411.272 118.941 411.324 119.767 411.427 120.301C411.539 120.828 411.743 121.394 412.038 122H408.712C408.624 121.777 408.517 121.446 408.389 121.007C408.333 120.808 408.293 120.676 408.269 120.612C407.695 121.171 407.081 121.589 406.427 121.868C405.773 122.148 405.075 122.287 404.333 122.287C403.026 122.287 401.993 121.932 401.235 121.222C400.485 120.513 400.111 119.615 400.111 118.531C400.111 117.813 400.282 117.175 400.625 116.617C400.968 116.05 401.446 115.62 402.061 115.325C402.683 115.022 403.576 114.758 404.74 114.535C406.311 114.24 407.4 113.965 408.006 113.71V113.375C408.006 112.729 407.847 112.27 407.528 111.999C407.209 111.72 406.606 111.58 405.721 111.58C405.123 111.58 404.656 111.7 404.322 111.939C403.987 112.17 403.715 112.581 403.508 113.171ZM408.006 115.899C407.575 116.042 406.894 116.214 405.96 116.413C405.027 116.613 404.417 116.808 404.13 117C403.691 117.311 403.472 117.705 403.472 118.184C403.472 118.654 403.648 119.061 403.999 119.404C404.349 119.747 404.796 119.918 405.338 119.918C405.944 119.918 406.523 119.719 407.073 119.32C407.48 119.017 407.747 118.646 407.875 118.208C407.962 117.921 408.006 117.374 408.006 116.569V115.899ZM404.369 107.74L406.02 104.163H409.789L406.499 107.74H404.369ZM422.996 122V120.098C422.533 120.776 421.923 121.31 421.165 121.701C420.416 122.092 419.622 122.287 418.785 122.287C417.931 122.287 417.166 122.1 416.488 121.725C415.81 121.35 415.319 120.824 415.016 120.146C414.713 119.468 414.562 118.531 414.562 117.334V109.295H417.923V115.133C417.923 116.92 417.983 118.016 418.103 118.423C418.23 118.822 418.458 119.141 418.785 119.38C419.112 119.611 419.526 119.727 420.029 119.727C420.603 119.727 421.117 119.572 421.572 119.26C422.027 118.941 422.338 118.551 422.505 118.088C422.673 117.618 422.756 116.473 422.756 114.655V109.295H426.118V122H422.996ZM435.437 109.295V111.975H433.14V117.095C433.14 118.132 433.16 118.738 433.2 118.914C433.248 119.081 433.347 119.221 433.499 119.332C433.659 119.444 433.85 119.5 434.073 119.5C434.384 119.5 434.835 119.392 435.425 119.177L435.712 121.785C434.931 122.12 434.045 122.287 433.056 122.287C432.45 122.287 431.904 122.187 431.417 121.988C430.931 121.781 430.572 121.517 430.341 121.198C430.118 120.872 429.962 120.433 429.874 119.883C429.802 119.492 429.767 118.702 429.767 117.514V111.975H428.223V109.295H429.767V106.771L433.14 104.809V109.295H435.437ZM437.77 107.573V104.462H441.131V107.573H437.77ZM437.77 122V109.295H441.131V122H437.77ZM455.666 113.052L452.353 113.65C452.241 112.988 451.986 112.49 451.587 112.155C451.196 111.82 450.686 111.652 450.056 111.652C449.218 111.652 448.548 111.943 448.046 112.525C447.551 113.1 447.304 114.065 447.304 115.42C447.304 116.928 447.555 117.992 448.058 118.615C448.568 119.237 449.25 119.548 450.104 119.548C450.742 119.548 451.264 119.368 451.671 119.009C452.077 118.642 452.365 118.016 452.532 117.131L455.834 117.693C455.491 119.209 454.833 120.353 453.86 121.127C452.887 121.9 451.583 122.287 449.948 122.287C448.09 122.287 446.606 121.701 445.498 120.529C444.397 119.356 443.847 117.733 443.847 115.66C443.847 113.562 444.401 111.931 445.51 110.767C446.618 109.594 448.118 109.008 450.008 109.008C451.555 109.008 452.783 109.343 453.692 110.013C454.61 110.675 455.267 111.688 455.666 113.052ZM460.739 113.171L457.688 112.621C458.031 111.393 458.621 110.484 459.458 109.894C460.296 109.303 461.54 109.008 463.191 109.008C464.69 109.008 465.807 109.188 466.541 109.547C467.274 109.898 467.789 110.348 468.084 110.898C468.387 111.441 468.538 112.442 468.538 113.901L468.502 117.825C468.502 118.941 468.554 119.767 468.658 120.301C468.77 120.828 468.973 121.394 469.268 122H465.942C465.855 121.777 465.747 121.446 465.619 121.007C465.564 120.808 465.524 120.676 465.5 120.612C464.926 121.171 464.311 121.589 463.657 121.868C463.003 122.148 462.306 122.287 461.564 122.287C460.256 122.287 459.223 121.932 458.466 121.222C457.716 120.513 457.341 119.615 457.341 118.531C457.341 117.813 457.513 117.175 457.855 116.617C458.198 116.05 458.677 115.62 459.291 115.325C459.913 115.022 460.806 114.758 461.971 114.535C463.542 114.24 464.63 113.965 465.237 113.71V113.375C465.237 112.729 465.077 112.27 464.758 111.999C464.439 111.72 463.837 111.58 462.952 111.58C462.354 111.58 461.887 111.7 461.552 111.939C461.217 112.17 460.946 112.581 460.739 113.171ZM465.237 115.899C464.806 116.042 464.124 116.214 463.191 116.413C462.258 116.613 461.648 116.808 461.361 117C460.922 117.311 460.703 117.705 460.703 118.184C460.703 118.654 460.878 119.061 461.229 119.404C461.58 119.747 462.027 119.918 462.569 119.918C463.175 119.918 463.753 119.719 464.303 119.32C464.71 119.017 464.977 118.646 465.105 118.208C465.193 117.921 465.237 117.374 465.237 116.569V115.899Z" fill="white"/>
<rect x="191" y="34" width="118" height="23" rx="11.5" fill="white" stroke="black" stroke-width="2"/>
<rect x="34" y="196" width="433" height="148" rx="23" fill="#F1F1F1" stroke="black" stroke-width="2"/>
<line x1="35" y1="268.5" x2="466" y2="268.5" stroke="black" stroke-width="3"/>
<rect x="34" y="356" width="431" height="108" rx="17" fill="white" stroke="black" stroke-width="2"/>
<path d="M59.0037 378.552L62.437 379.641C61.9106 381.555 61.0334 382.978 59.8052 383.911C58.585 384.837 57.0338 385.299 55.1516 385.299C52.8228 385.299 50.9088 384.506 49.4094 382.918C47.9101 381.323 47.1604 379.146 47.1604 376.387C47.1604 373.468 47.9141 371.203 49.4214 369.592C50.9287 367.973 52.9106 367.163 55.3669 367.163C57.5123 367.163 59.2549 367.797 60.5947 369.065C61.3923 369.815 61.9904 370.892 62.3892 372.295L58.884 373.133C58.6767 372.224 58.242 371.506 57.5801 370.979C56.9261 370.453 56.1286 370.19 55.1875 370.19C53.8875 370.19 52.8308 370.656 52.0173 371.59C51.2118 372.523 50.8091 374.034 50.8091 376.124C50.8091 378.341 51.2078 379.92 52.0054 380.861C52.8029 381.802 53.8397 382.272 55.1157 382.272C56.0568 382.272 56.8663 381.973 57.5442 381.375C58.2221 380.777 58.7086 379.836 59.0037 378.552ZM67.9758 376.171L64.9253 375.621C65.2682 374.393 65.8584 373.484 66.6958 372.894C67.5332 372.303 68.7773 372.008 70.4282 372.008C71.9276 372.008 73.0441 372.188 73.7778 372.547C74.5116 372.898 75.026 373.348 75.321 373.898C75.6241 374.441 75.7756 375.442 75.7756 376.901L75.7397 380.825C75.7397 381.941 75.7916 382.767 75.8953 383.301C76.0069 383.828 76.2103 384.394 76.5054 385H73.1797C73.092 384.777 72.9843 384.446 72.8567 384.007C72.8009 383.808 72.761 383.676 72.7371 383.612C72.1628 384.171 71.5487 384.589 70.8948 384.868C70.2408 385.148 69.543 385.287 68.8013 385.287C67.4933 385.287 66.4605 384.932 65.7029 384.222C64.9532 383.513 64.5784 382.615 64.5784 381.531C64.5784 380.813 64.7498 380.175 65.0928 379.617C65.4357 379.05 65.9142 378.62 66.5283 378.325C67.1504 378.022 68.0436 377.758 69.208 377.535C70.7791 377.24 71.8678 376.965 72.4739 376.71V376.375C72.4739 375.729 72.3144 375.27 71.9954 374.999C71.6764 374.72 71.0742 374.58 70.189 374.58C69.5908 374.58 69.1243 374.7 68.7893 374.939C68.4543 375.17 68.1832 375.581 67.9758 376.171ZM72.4739 378.899C72.0432 379.042 71.3613 379.214 70.4282 379.413C69.4951 379.613 68.885 379.808 68.5979 380C68.1593 380.311 67.9399 380.705 67.9399 381.184C67.9399 381.654 68.1154 382.061 68.4663 382.404C68.8172 382.747 69.2638 382.918 69.8062 382.918C70.4123 382.918 70.9905 382.719 71.5408 382.32C71.9475 382.017 72.2147 381.646 72.3423 381.208C72.43 380.921 72.4739 380.374 72.4739 379.569V378.899ZM82.3193 385H78.9578V372.295H82.0801V374.102C82.6144 373.248 83.0929 372.686 83.5156 372.415C83.9463 372.144 84.4328 372.008 84.9751 372.008C85.7407 372.008 86.4784 372.22 87.1882 372.642L86.1475 375.573C85.5812 375.206 85.0549 375.023 84.5684 375.023C84.0978 375.023 83.6991 375.155 83.3721 375.418C83.0451 375.673 82.7859 376.139 82.5945 376.817C82.4111 377.495 82.3193 378.915 82.3193 381.076V385ZM88.3367 385.837L92.1768 386.304C92.2406 386.751 92.3881 387.058 92.6194 387.225C92.9384 387.464 93.4408 387.584 94.1267 387.584C95.004 387.584 95.6619 387.452 96.1006 387.189C96.3957 387.014 96.619 386.731 96.7705 386.34C96.8742 386.061 96.926 385.546 96.926 384.797V382.942C95.9211 384.314 94.6531 385 93.1218 385C91.4151 385 90.0633 384.278 89.0664 382.835C88.2848 381.694 87.894 380.275 87.894 378.576C87.894 376.447 88.4045 374.82 89.4253 373.695C90.4541 372.571 91.7301 372.008 93.2534 372.008C94.8245 372.008 96.1205 372.698 97.1414 374.078V372.295H100.288V383.696C100.288 385.195 100.164 386.316 99.9167 387.058C99.6695 387.799 99.3226 388.382 98.876 388.804C98.4294 389.227 97.8312 389.558 97.0815 389.797C96.3398 390.036 95.3988 390.156 94.2583 390.156C92.105 390.156 90.5777 389.785 89.6765 389.043C88.7753 388.31 88.3247 387.377 88.3247 386.244C88.3247 386.132 88.3287 385.997 88.3367 385.837ZM91.3394 378.385C91.3394 379.732 91.5986 380.721 92.1169 381.351C92.6433 381.973 93.2893 382.284 94.0549 382.284C94.8764 382.284 95.5702 381.965 96.1365 381.327C96.7027 380.681 96.9858 379.728 96.9858 378.468C96.9858 377.152 96.7147 376.175 96.1724 375.537C95.63 374.899 94.9442 374.58 94.1147 374.58C93.3092 374.58 92.6433 374.895 92.1169 375.525C91.5986 376.147 91.3394 377.101 91.3394 378.385ZM102.848 378.468C102.848 377.352 103.123 376.271 103.673 375.226C104.223 374.182 105.001 373.384 106.006 372.834C107.019 372.283 108.147 372.008 109.391 372.008C111.313 372.008 112.889 372.634 114.117 373.886C115.345 375.131 115.959 376.706 115.959 378.612C115.959 380.534 115.337 382.129 114.093 383.397C112.857 384.657 111.297 385.287 109.415 385.287C108.251 385.287 107.138 385.024 106.078 384.498C105.025 383.971 104.223 383.202 103.673 382.189C103.123 381.168 102.848 379.928 102.848 378.468ZM106.293 378.648C106.293 379.908 106.592 380.873 107.19 381.543C107.788 382.213 108.526 382.548 109.403 382.548C110.281 382.548 111.014 382.213 111.604 381.543C112.203 380.873 112.502 379.9 112.502 378.624C112.502 377.38 112.203 376.423 111.604 375.753C111.014 375.083 110.281 374.748 109.403 374.748C108.526 374.748 107.788 375.083 107.19 375.753C106.592 376.423 106.293 377.388 106.293 378.648ZM116.808 385.299L121.151 367.163H123.675L119.285 385.299H116.808ZM125.469 385V367.462H137.492V370.429H129.01V374.58H136.332V377.547H129.01V385H125.469ZM148.761 385V383.098C148.299 383.776 147.689 384.31 146.931 384.701C146.181 385.092 145.388 385.287 144.55 385.287C143.697 385.287 142.931 385.1 142.253 384.725C141.576 384.35 141.085 383.824 140.782 383.146C140.479 382.468 140.327 381.531 140.327 380.334V372.295H143.689V378.133C143.689 379.92 143.749 381.016 143.868 381.423C143.996 381.822 144.223 382.141 144.55 382.38C144.877 382.611 145.292 382.727 145.794 382.727C146.369 382.727 146.883 382.572 147.338 382.26C147.792 381.941 148.103 381.551 148.271 381.088C148.438 380.618 148.522 379.473 148.522 377.655V372.295H151.884V385H148.761ZM166.933 385H163.571V378.516C163.571 377.144 163.5 376.259 163.356 375.86C163.212 375.454 162.977 375.139 162.65 374.915C162.331 374.692 161.944 374.58 161.49 374.58C160.908 374.58 160.385 374.74 159.923 375.059C159.46 375.378 159.141 375.801 158.966 376.327C158.798 376.853 158.714 377.826 158.714 379.246V385H155.353V372.295H158.475V374.162C159.584 372.726 160.979 372.008 162.662 372.008C163.404 372.008 164.082 372.144 164.696 372.415C165.31 372.678 165.772 373.017 166.083 373.432C166.403 373.847 166.622 374.317 166.741 374.844C166.869 375.37 166.933 376.124 166.933 377.104V385ZM181.432 376.052L178.118 376.65C178.007 375.988 177.751 375.49 177.353 375.155C176.962 374.82 176.451 374.652 175.821 374.652C174.984 374.652 174.314 374.943 173.812 375.525C173.317 376.1 173.07 377.065 173.07 378.42C173.07 379.928 173.321 380.992 173.823 381.615C174.334 382.237 175.016 382.548 175.869 382.548C176.507 382.548 177.03 382.368 177.436 382.009C177.843 381.642 178.13 381.016 178.298 380.131L181.599 380.693C181.256 382.209 180.598 383.353 179.625 384.127C178.653 384.9 177.349 385.287 175.714 385.287C173.855 385.287 172.372 384.701 171.263 383.529C170.163 382.356 169.613 380.733 169.613 378.66C169.613 376.562 170.167 374.931 171.275 373.767C172.384 372.594 173.883 372.008 175.773 372.008C177.321 372.008 178.549 372.343 179.458 373.013C180.375 373.675 181.033 374.688 181.432 376.052ZM172.376 389.821V388.409C173.197 388.497 173.951 388.541 174.637 388.541C175.347 388.541 175.873 388.413 176.216 388.158C176.479 387.967 176.611 387.72 176.611 387.417C176.611 387.145 176.487 386.91 176.24 386.711C175.993 386.511 175.61 386.412 175.092 386.412C174.581 386.412 174.059 386.491 173.524 386.651L173.835 385.467C174.458 385.251 175.127 385.144 175.845 385.144C176.842 385.144 177.6 385.363 178.118 385.802C178.637 386.24 178.896 386.774 178.896 387.405C178.896 388.106 178.609 388.677 178.034 389.115C177.261 389.713 176.152 390.012 174.709 390.012C173.68 390.012 172.902 389.949 172.376 389.821ZM186.504 376.171L183.454 375.621C183.797 374.393 184.387 373.484 185.224 372.894C186.062 372.303 187.306 372.008 188.957 372.008C190.456 372.008 191.572 372.188 192.306 372.547C193.04 372.898 193.554 373.348 193.849 373.898C194.152 374.441 194.304 375.442 194.304 376.901L194.268 380.825C194.268 381.941 194.32 382.767 194.424 383.301C194.535 383.828 194.739 384.394 195.034 385H191.708C191.62 384.777 191.513 384.446 191.385 384.007C191.329 383.808 191.289 383.676 191.265 383.612C190.691 384.171 190.077 384.589 189.423 384.868C188.769 385.148 188.071 385.287 187.33 385.287C186.022 385.287 184.989 384.932 184.231 384.222C183.482 383.513 183.107 382.615 183.107 381.531C183.107 380.813 183.278 380.175 183.621 379.617C183.964 379.05 184.443 378.62 185.057 378.325C185.679 378.022 186.572 377.758 187.736 377.535C189.307 377.24 190.396 376.965 191.002 376.71V376.375C191.002 375.729 190.843 375.27 190.524 374.999C190.205 374.72 189.603 374.58 188.717 374.58C188.119 374.58 187.653 374.7 187.318 374.939C186.983 375.17 186.712 375.581 186.504 376.171ZM191.002 378.899C190.572 379.042 189.89 379.214 188.957 379.413C188.023 379.613 187.413 379.808 187.126 380C186.688 380.311 186.468 380.705 186.468 381.184C186.468 381.654 186.644 382.061 186.995 382.404C187.346 382.747 187.792 382.918 188.334 382.918C188.941 382.918 189.519 382.719 190.069 382.32C190.476 382.017 190.743 381.646 190.871 381.208C190.958 380.921 191.002 380.374 191.002 379.569V378.899ZM186.48 370.585H184.949C184.941 370.401 184.937 370.258 184.937 370.154C184.937 369.317 185.14 368.675 185.547 368.228C185.954 367.773 186.476 367.546 187.114 367.546C187.393 367.546 187.653 367.578 187.892 367.642C188.131 367.698 188.566 367.869 189.196 368.156C189.834 368.435 190.332 368.575 190.691 368.575C190.946 368.575 191.158 368.495 191.325 368.336C191.501 368.176 191.612 367.909 191.66 367.534H193.215C193.207 368.611 193.004 369.38 192.605 369.843C192.214 370.306 191.708 370.537 191.086 370.537C190.815 370.537 190.548 370.509 190.284 370.453C190.101 370.405 189.642 370.242 188.909 369.963C188.175 369.684 187.641 369.544 187.306 369.544C187.05 369.544 186.851 369.624 186.708 369.783C186.564 369.935 186.488 370.202 186.48 370.585ZM196.852 378.468C196.852 377.352 197.127 376.271 197.677 375.226C198.228 374.182 199.005 373.384 200.01 372.834C201.023 372.283 202.152 372.008 203.396 372.008C205.318 372.008 206.893 372.634 208.121 373.886C209.349 375.131 209.963 376.706 209.963 378.612C209.963 380.534 209.341 382.129 208.097 383.397C206.861 384.657 205.302 385.287 203.42 385.287C202.255 385.287 201.143 385.024 200.082 384.498C199.029 383.971 198.228 383.202 197.677 382.189C197.127 381.168 196.852 379.928 196.852 378.468ZM200.297 378.648C200.297 379.908 200.596 380.873 201.195 381.543C201.793 382.213 202.53 382.548 203.408 382.548C204.285 382.548 205.019 382.213 205.609 381.543C206.207 380.873 206.506 379.9 206.506 378.624C206.506 377.38 206.207 376.423 205.609 375.753C205.019 375.083 204.285 374.748 203.408 374.748C202.53 374.748 201.793 375.083 201.195 375.753C200.596 376.423 200.297 377.388 200.297 378.648ZM213.253 375.657V372.295H216.615V375.657H213.253ZM213.253 385V381.638H216.615V385H213.253Z" fill="black"/>
<rect x="248" y="532" width="221" height="137" rx="20" fill="white" stroke="black" stroke-width="2"/>
<path d="M260.885 556.294L264.331 555.959C264.538 557.115 264.957 557.965 265.587 558.507C266.225 559.049 267.082 559.32 268.159 559.32C269.299 559.32 270.156 559.081 270.731 558.603C271.313 558.116 271.604 557.55 271.604 556.904C271.604 556.489 271.48 556.138 271.233 555.851C270.994 555.556 270.571 555.301 269.965 555.085C269.55 554.942 268.605 554.687 267.13 554.32C265.232 553.849 263.9 553.271 263.134 552.585C262.058 551.62 261.519 550.444 261.519 549.056C261.519 548.163 261.771 547.33 262.273 546.556C262.783 545.774 263.513 545.18 264.462 544.773C265.419 544.367 266.572 544.163 267.919 544.163C270.121 544.163 271.775 544.646 272.884 545.611C274.001 546.576 274.587 547.864 274.643 549.475L271.102 549.63C270.95 548.729 270.623 548.083 270.121 547.692C269.626 547.294 268.88 547.094 267.884 547.094C266.855 547.094 266.049 547.306 265.467 547.728C265.092 547.999 264.905 548.362 264.905 548.817C264.905 549.232 265.08 549.587 265.431 549.882C265.878 550.256 266.962 550.647 268.685 551.054C270.408 551.461 271.68 551.883 272.501 552.322C273.331 552.753 273.977 553.347 274.439 554.104C274.91 554.854 275.145 555.783 275.145 556.892C275.145 557.897 274.866 558.838 274.308 559.715C273.749 560.592 272.96 561.246 271.939 561.677C270.918 562.1 269.646 562.311 268.123 562.311C265.906 562.311 264.203 561.801 263.015 560.78C261.826 559.751 261.117 558.256 260.885 556.294ZM285.457 557.957L288.807 558.519C288.376 559.747 287.694 560.684 286.761 561.33C285.836 561.968 284.675 562.287 283.28 562.287C281.071 562.287 279.436 561.565 278.375 560.122C277.538 558.965 277.119 557.506 277.119 555.743C277.119 553.638 277.669 551.991 278.77 550.803C279.87 549.606 281.262 549.008 282.945 549.008C284.835 549.008 286.326 549.634 287.419 550.886C288.512 552.131 289.034 554.041 288.986 556.617H280.564C280.588 557.614 280.859 558.391 281.378 558.949C281.896 559.5 282.542 559.775 283.316 559.775C283.842 559.775 284.285 559.631 284.644 559.344C285.002 559.057 285.274 558.595 285.457 557.957ZM285.648 554.559C285.625 553.586 285.373 552.848 284.895 552.346C284.416 551.836 283.834 551.58 283.148 551.58C282.414 551.58 281.808 551.847 281.33 552.382C280.851 552.916 280.616 553.642 280.624 554.559H285.648ZM297.563 549.295V551.975H295.267V557.095C295.267 558.132 295.287 558.738 295.326 558.914C295.374 559.081 295.474 559.221 295.625 559.332C295.785 559.444 295.976 559.5 296.2 559.5C296.511 559.5 296.961 559.392 297.552 559.177L297.839 561.785C297.057 562.12 296.172 562.287 295.183 562.287C294.577 562.287 294.03 562.187 293.544 561.988C293.057 561.781 292.699 561.517 292.467 561.198C292.244 560.872 292.088 560.433 292.001 559.883C291.929 559.492 291.893 558.702 291.893 557.514V551.975H290.35V549.295H291.893V546.771L295.267 544.809V549.295H297.563ZM299.119 555.468C299.119 554.352 299.394 553.271 299.944 552.226C300.494 551.182 301.272 550.384 302.277 549.834C303.29 549.283 304.418 549.008 305.662 549.008C307.584 549.008 309.16 549.634 310.388 550.886C311.616 552.131 312.23 553.706 312.23 555.612C312.23 557.534 311.608 559.129 310.364 560.397C309.128 561.657 307.568 562.287 305.686 562.287C304.522 562.287 303.409 562.024 302.349 561.498C301.296 560.971 300.494 560.202 299.944 559.189C299.394 558.168 299.119 556.928 299.119 555.468ZM302.564 555.648C302.564 556.908 302.863 557.873 303.461 558.543C304.059 559.213 304.797 559.548 305.674 559.548C306.552 559.548 307.285 559.213 307.875 558.543C308.474 557.873 308.773 556.9 308.773 555.624C308.773 554.38 308.474 553.423 307.875 552.753C307.285 552.083 306.552 551.748 305.674 551.748C304.797 551.748 304.059 552.083 303.461 552.753C302.863 553.423 302.564 554.388 302.564 555.648ZM318.092 562H314.73V549.295H317.853V551.102C318.387 550.248 318.865 549.686 319.288 549.415C319.719 549.144 320.205 549.008 320.748 549.008C321.513 549.008 322.251 549.22 322.961 549.642L321.92 552.573C321.354 552.206 320.827 552.023 320.341 552.023C319.87 552.023 319.472 552.155 319.145 552.418C318.818 552.673 318.558 553.139 318.367 553.817C318.184 554.495 318.092 555.915 318.092 558.076V562ZM325.066 552.657V549.295H328.428V552.657H325.066ZM325.066 562V558.638H328.428V562H325.066Z" fill="black"/>
<rect x="36" y="476" width="194" height="260" fill="white" stroke="black" stroke-width="2"/>
</svg>
