<svg width="61" height="61" viewBox="0 0 61 61" fill="none" xmlns="http://www.w3.org/2000/svg">
<path d="M7.95288 8.22925L52.9528 53.2292M25.0636 25.5133C23.757 26.8632 22.9529 28.7022 22.9529 30.7292C22.9529 34.8715 26.3108 38.2292 30.4528 38.2292C32.5091 38.2292 34.3721 37.4017 35.7268 36.0617M16.7029 17.3471C11.9546 20.4801 8.33795 25.1891 6.5979 30.7292C9.78353 40.872 19.2593 48.2292 30.4533 48.2292C35.4256 48.2292 40.0588 46.7777 43.9523 44.2752M27.9528 13.3527C28.7753 13.2711 29.6096 13.2292 30.4533 13.2292C41.6476 13.2292 51.1233 20.5865 54.3088 30.7292C53.6071 32.9642 52.5996 35.0637 51.3358 36.9792" stroke="black" stroke-width="5" stroke-linecap="round" stroke-linejoin="round"/>
</svg>
