<svg width="61" height="61" viewBox="0 0 61 61" fill="none" xmlns="http://www.w3.org/2000/svg">
<path d="M14.8346 38.4493C14.8346 37.4138 13.9951 36.5743 12.9596 36.5743C11.9241 36.5743 11.0846 37.4138 11.0846 38.4493H14.8346ZM48.9596 38.4493C48.9596 37.4138 48.1201 36.5743 47.0846 36.5743C46.0491 36.5743 45.2096 37.4138 45.2096 38.4493H48.9596ZM31.5006 14.6025C32.1373 13.786 31.9918 12.6078 31.1753 11.9709C30.3588 11.334 29.1806 11.4796 28.5436 12.2961L31.5006 14.6025ZM18.7936 24.7961C18.1568 25.6126 18.3024 26.7908 19.1189 27.4278C19.9354 28.0646 21.1136 27.9191 21.7505 27.1026L18.7936 24.7961ZM31.5006 12.2961C30.8636 11.4796 29.6853 11.334 28.8688 11.9709C28.0523 12.6078 27.9068 13.786 28.5436 14.6025L31.5006 12.2961ZM38.2936 27.1026C38.9306 27.9191 40.1088 28.0646 40.9253 27.4278C41.7418 26.7908 41.8873 25.6126 41.2506 24.7961L38.2936 27.1026ZM31.8971 13.4493C31.8971 12.4138 31.0576 11.5743 30.0221 11.5743C28.9866 11.5743 28.1471 12.4138 28.1471 13.4493H31.8971ZM28.1471 40.9493C28.1471 41.9848 28.9866 42.8243 30.0221 42.8243C31.0576 42.8243 31.8971 41.9848 31.8971 40.9493H28.1471ZM11.0846 38.4493V40.9493H14.8346V38.4493H11.0846ZM11.0846 40.9493C11.0846 46.0821 15.1535 50.3243 20.2721 50.3243V46.5743C17.3135 46.5743 14.8346 44.1011 14.8346 40.9493H11.0846ZM20.2721 50.3243H39.7721V46.5743H20.2721V50.3243ZM39.7721 50.3243C44.8906 50.3243 48.9596 46.0821 48.9596 40.9493H45.2096C45.2096 44.1011 42.7306 46.5743 39.7721 46.5743V50.3243ZM48.9596 40.9493V38.4493H45.2096V40.9493H48.9596ZM28.5436 12.2961L18.7936 24.7961L21.7505 27.1026L31.5006 14.6025L28.5436 12.2961ZM28.5436 14.6025L38.2936 27.1026L41.2506 24.7961L31.5006 12.2961L28.5436 14.6025ZM28.1471 13.4493V40.9493H31.8971V13.4493H28.1471Z" fill="white"/>
</svg>
